<?xml version="1.0" encoding="UTF-8"?>
<!DOCTYPE svg PUBLIC "-//W3C//DTD SVG 1.1//EN" "http://www.w3.org/Graphics/SVG/1.1/DTD/svg11.dtd">
<svg xmlns="http://www.w3.org/2000/svg" version="1.1" width="210px" height="630px" style="shape-rendering:geometricPrecision; text-rendering:geometricPrecision; image-rendering:optimizeQuality; fill-rule:evenodd; clip-rule:evenodd" xmlns:xlink="http://www.w3.org/1999/xlink">
<g><path style="opacity:0.89" fill="#fefffe" d="M 31.5,13.5 C 41.1553,13.825 45.4887,18.825 44.5,28.5C 46.1439,28.2865 47.6439,28.6198 49,29.5C 49.8311,36.5237 49.6644,43.5237 48.5,50.5C 39.1667,51.8333 29.8333,51.8333 20.5,50.5C 19.3356,43.5237 19.1689,36.5237 20,29.5C 21.3561,28.6198 22.8561,28.2865 24.5,28.5C 23.4036,21.7001 25.7369,16.7001 31.5,13.5 Z M 32.5,18.5 C 38.7037,18.8642 41.037,22.1976 39.5,28.5C 35.8333,28.5 32.1667,28.5 28.5,28.5C 27.7494,24.1804 29.0827,20.8471 32.5,18.5 Z"/></g>
<g><path style="opacity:1" fill="#fefffe" d="M 33.5,87.5 C 34.4959,87.4142 35.3292,87.7476 36,88.5C 37.2663,91.4662 38.4329,94.4662 39.5,97.5C 42.9758,96.0217 46.3091,96.1884 49.5,98C 47.1205,101.258 44.6205,104.424 42,107.5C 41.4769,112.243 42.3102,116.743 44.5,121C 43.4071,122.365 42.0738,122.699 40.5,122C 38.6667,120.167 36.8333,118.333 35,116.5C 32.6667,119.5 30.3333,122.5 28,125.5C 26.3831,124.464 26.2164,123.297 27.5,122C 26.6948,117.251 26.1948,112.418 26,107.5C 17.1315,102.318 17.9648,99.4845 28.5,99C 29,98.5 29.5,98 30,97.5C 30.2905,93.7921 31.4571,90.4587 33.5,87.5 Z M 33.5,93.5 C 34.5862,93.62 35.2528,94.2867 35.5,95.5C 35.1667,96.1667 34.8333,96.8333 34.5,97.5C 33.5713,96.3112 33.238,94.9778 33.5,93.5 Z M 41.5,99.5 C 42.552,99.3505 43.552,99.5172 44.5,100C 43.6959,101.771 42.5292,103.271 41,104.5C 38.99,102.604 39.1567,100.937 41.5,99.5 Z M 34.5,100.5 C 36.4562,102.032 37.4562,104.199 37.5,107C 35.49,112.869 33.1567,112.869 30.5,107C 31.2335,105.234 31.5668,103.401 31.5,101.5C 32.791,101.737 33.791,101.404 34.5,100.5 Z M 25.5,103.5 C 26.3864,102.224 27.3864,102.224 28.5,103.5C 27.5754,104.562 26.5754,104.562 25.5,103.5 Z M 29.5,111.5 C 33.2431,113.427 33.4097,115.761 30,118.5C 29.5034,116.19 29.3367,113.857 29.5,111.5 Z M 37.5,112.5 C 40.2851,116.449 39.9517,116.949 36.5,114C 37.056,113.617 37.3893,113.117 37.5,112.5 Z"/></g>
<g><path style="opacity:1" fill="#fefffe" d="M 46.5,88.5 C 47.7562,88.4614 48.7562,88.9614 49.5,90C 48.2744,91.6349 46.941,93.1349 45.5,94.5C 44.6919,94.1924 44.0253,93.6924 43.5,93C 44.8825,91.7292 45.8825,90.2292 46.5,88.5 Z"/></g>
<g><path style="opacity:1" fill="#fefffe" d="M 21.5,89.5 C 23.371,89.8588 24.871,90.8588 26,92.5C 26.5628,93.7248 26.2295,94.7248 25,95.5C 23.5,94 22,92.5 20.5,91C 21.056,90.6174 21.3893,90.1174 21.5,89.5 Z"/></g>
<g><path style="opacity:1" fill="#fefffe" d="M 19.5,162.5 C 22.8108,163.455 25.9774,164.788 29,166.5C 31.1159,172.919 28.6159,176.252 21.5,176.5C 16.2615,176.364 14.0948,173.697 15,168.5C 16.332,166.34 17.832,164.34 19.5,162.5 Z M 20.5,165.5 C 20.4562,167.859 20.7895,170.359 21.5,173C 19.3927,173.854 18.0593,173.188 17.5,171C 18.1242,168.915 19.1242,167.082 20.5,165.5 Z M 25.5,169.5 C 26.7125,170.497 26.5458,171.497 25,172.5C 24.5304,171.423 24.6971,170.423 25.5,169.5 Z"/></g>
<g><path style="opacity:1" fill="#fefffe" d="M 42.5,162.5 C 53.527,162.67 55.8603,167.17 49.5,176C 40.7379,178.91 37.2379,175.744 39,166.5C 39.6897,164.65 40.8564,163.316 42.5,162.5 Z"/></g>
<g><path style="opacity:1" fill="#fefffe" d="M 49.5,179.5 C 50.7562,179.461 51.7562,179.961 52.5,181C 49.536,184.966 46.2026,188.633 42.5,192C 41.2161,192.684 40.0495,192.517 39,191.5C 38.6667,189.167 38.3333,186.833 38,184.5C 35.4125,186.196 32.5792,187.196 29.5,187.5C 29.6495,188.552 29.4828,189.552 29,190.5C 28.3333,191.833 27.6667,191.833 27,190.5C 26.2571,188.559 26.4238,186.726 27.5,185C 31.1366,184.232 34.6366,183.066 38,181.5C 40.8922,182.82 42.2255,185.154 42,188.5C 45.0884,185.919 47.5884,182.919 49.5,179.5 Z"/></g>
</svg>
