<?xml version="1.0" encoding="UTF-8"?>
<!DOCTYPE svg PUBLIC "-//W3C//DTD SVG 1.1//EN" "http://www.w3.org/Graphics/SVG/1.1/DTD/svg11.dtd">
<svg xmlns="http://www.w3.org/2000/svg" version="1.1" width="126px" height="150px" style="shape-rendering:geometricPrecision; text-rendering:geometricPrecision; image-rendering:optimizeQuality; fill-rule:evenodd; clip-rule:evenodd" xmlns:xlink="http://www.w3.org/1999/xlink">
<g><path style="opacity:0.851" fill="#eb6200" d="M 114.5,32.5 C 114.5,37.8333 114.5,43.1667 114.5,48.5C 112.742,48.1231 111.075,47.4565 109.5,46.5C 108.824,47.6016 108.158,48.6016 107.5,49.5C 101.963,25.6341 86.9625,12.3008 62.5,9.5C 38.0375,12.3008 23.0375,25.6341 17.5,49.5C 16.8423,48.6016 16.1757,47.6016 15.5,46.5C 13.9246,47.4565 12.258,48.1231 10.5,48.5C 10.5,43.1667 10.5,37.8333 10.5,32.5C 26.6178,4.27609 50.6178,-5.55724 82.5,3C 96.8778,8.88042 107.544,18.7138 114.5,32.5 Z"/></g>
<g><path style="opacity:0.945" fill="#eb2f00" d="M 10.5,32.5 C 10.5,37.8333 10.5,43.1667 10.5,48.5C 8.5,49.5 6.5,50.5 4.5,51.5C 4.5,40.8333 4.5,30.1667 4.5,19.5C 6.16667,19.5 7.83333,19.5 9.5,19.5C 9.37176,23.8814 9.70509,28.2147 10.5,32.5 Z"/></g>
<g><path style="opacity:0.945" fill="#eb2f00" d="M 120.5,51.5 C 118.5,50.5 116.5,49.5 114.5,48.5C 114.5,43.1667 114.5,37.8333 114.5,32.5C 115.295,28.2147 115.628,23.8814 115.5,19.5C 117.167,19.5 118.833,19.5 120.5,19.5C 120.5,30.1667 120.5,40.8333 120.5,51.5 Z"/></g>
<g><path style="opacity:0.969" fill="#ff7a00" d="M 93.5,52.5 C 91.832,54.34 90.332,56.34 89,58.5C 88.3333,68.8333 88.3333,79.1667 89,89.5C 90.1667,92 92,93.8333 94.5,95C 99.7551,96.0468 104.755,95.5468 109.5,93.5C 110.107,93.6236 110.44,93.9569 110.5,94.5C 107.774,117.067 95.4407,131.567 73.5,138C 43.6171,141.984 23.7838,129.817 14,101.5C 13.502,98.5184 13.3354,95.5184 13.5,92.5C 13.4346,92.0618 13.6012,91.7284 14,91.5C 14.5,93.3333 15.6667,94.5 17.5,95C 21.8333,95.6667 26.1667,95.6667 30.5,95C 33,93.8333 34.8333,92 36,89.5C 36.6667,79.1667 36.6667,68.8333 36,58.5C 34.6403,55.9774 32.807,53.9774 30.5,52.5C 45.1694,41.1244 61.5027,38.2911 79.5,44C 84.7303,46.1057 89.397,48.939 93.5,52.5 Z"/></g>
<g><path style="opacity:1" fill="#bc2500" d="M 17.5,49.5 C 17.5,50.5 17.5,51.5 17.5,52.5C 14.2586,54.9826 12.5919,58.3159 12.5,62.5C 9.53922,63.3928 7.70588,65.3928 7,68.5C 6.50137,72.1516 6.3347,75.8183 6.5,79.5C 5.5,79.5 4.5,79.5 3.5,79.5C 3.66716,70.1594 4.00049,60.826 4.5,51.5C 6.5,50.5 8.5,49.5 10.5,48.5C 12.258,48.1231 13.9246,47.4565 15.5,46.5C 16.1757,47.6016 16.8423,48.6016 17.5,49.5 Z"/></g>
<g><path style="opacity:1" fill="#c33813" d="M 114.5,48.5 C 116.5,49.5 118.5,50.5 120.5,51.5C 121.24,60.823 121.907,70.1563 122.5,79.5C 121.167,79.5 119.833,79.5 118.5,79.5C 119.069,74.223 118.235,69.223 116,64.5C 114.887,63.695 113.721,63.0283 112.5,62.5C 112.408,58.3159 110.741,54.9826 107.5,52.5C 107.5,51.5 107.5,50.5 107.5,49.5C 108.158,48.6016 108.824,47.6016 109.5,46.5C 111.075,47.4565 112.742,48.1231 114.5,48.5 Z"/></g>
<g><path style="opacity:0.997" fill="#fe4612" d="M 17.5,52.5 C 21.8333,52.5 26.1667,52.5 30.5,52.5C 32.807,53.9774 34.6403,55.9774 36,58.5C 36.6667,68.8333 36.6667,79.1667 36,89.5C 34.8333,92 33,93.8333 30.5,95C 26.1667,95.6667 21.8333,95.6667 17.5,95C 15.6667,94.5 14.5,93.3333 14,91.5C 13.6012,91.7284 13.4346,92.0618 13.5,92.5C 12.5655,91.4324 12.2322,90.099 12.5,88.5C 12.5,79.8333 12.5,71.1667 12.5,62.5C 12.5919,58.3159 14.2586,54.9826 17.5,52.5 Z"/></g>
<g><path style="opacity:0.994" fill="#fe4612" d="M 93.5,52.5 C 98.1667,52.5 102.833,52.5 107.5,52.5C 110.741,54.9826 112.408,58.3159 112.5,62.5C 112.5,71.1667 112.5,79.8333 112.5,88.5C 112.741,90.8984 112.074,92.8984 110.5,94.5C 110.44,93.9569 110.107,93.6236 109.5,93.5C 104.755,95.5468 99.7551,96.0468 94.5,95C 92,93.8333 90.1667,92 89,89.5C 88.3333,79.1667 88.3333,68.8333 89,58.5C 90.332,56.34 91.832,54.34 93.5,52.5 Z"/></g>
<g><path style="opacity:0.908" fill="#922609" d="M 12.5,62.5 C 12.5,71.1667 12.5,79.8333 12.5,88.5C 7.39607,87.7092 5.39607,84.7092 6.5,79.5C 6.3347,75.8183 6.50137,72.1516 7,68.5C 7.70588,65.3928 9.53922,63.3928 12.5,62.5 Z"/></g>
<g><path style="opacity:0.908" fill="#922609" d="M 112.5,62.5 C 113.721,63.0283 114.887,63.695 116,64.5C 118.235,69.223 119.069,74.223 118.5,79.5C 119.604,84.7092 117.604,87.7092 112.5,88.5C 112.5,79.8333 112.5,71.1667 112.5,62.5 Z"/></g>
</svg>
