<?xml version="1.0" encoding="UTF-8"?>
<!DOCTYPE svg PUBLIC "-//W3C//DTD SVG 1.1//EN" "http://www.w3.org/Graphics/SVG/1.1/DTD/svg11.dtd">
<svg xmlns="http://www.w3.org/2000/svg" version="1.1" width="370px" height="80px" style="shape-rendering:geometricPrecision; text-rendering:geometricPrecision; image-rendering:optimizeQuality; fill-rule:evenodd; clip-rule:evenodd" xmlns:xlink="http://www.w3.org/1999/xlink">
<g><path style="opacity:1" fill="#000000" d="M 325.5,5.5 C 331.167,5.5 336.833,5.5 342.5,5.5C 342.5,8.5 342.5,11.5 342.5,14.5C 338.5,14.5 334.5,14.5 330.5,14.5C 330.794,23.9285 330.127,33.2618 328.5,42.5C 323.5,42.5 318.5,42.5 313.5,42.5C 313.5,38.5 313.5,34.5 313.5,30.5C 317.5,30.5 321.5,30.5 325.5,30.5C 325.5,22.1667 325.5,13.8333 325.5,5.5 Z"/></g>
<g><path style="opacity:0.972" fill="#000000" d="M 349.5,7.5 C 355.167,7.5 360.833,7.5 366.5,7.5C 366.5,13.8333 366.5,20.1667 366.5,26.5C 360.833,26.5 355.167,26.5 349.5,26.5C 349.5,20.1667 349.5,13.8333 349.5,7.5 Z M 351.5,10.5 C 352.5,10.5 353.5,10.5 354.5,10.5C 354.5,12.5 354.5,14.5 354.5,16.5C 353.5,16.5 352.5,16.5 351.5,16.5C 351.5,14.5 351.5,12.5 351.5,10.5 Z M 361.5,12.5 C 362.586,12.62 363.253,13.2867 363.5,14.5C 363.167,15.1667 362.833,15.8333 362.5,16.5C 361.571,15.3112 361.238,13.9778 361.5,12.5 Z M 362.5,20.5 C 363.434,21.5676 363.768,22.901 363.5,24.5C 359.5,24.5 355.5,24.5 351.5,24.5C 351.351,23.448 351.517,22.448 352,21.5C 355.149,23.3625 358.649,24.0291 362.5,23.5C 362.5,22.5 362.5,21.5 362.5,20.5 Z"/></g>
<g><path style="opacity:0.901" fill="#000000" d="M 10.5,24.5 C 16.5,24.5 22.5,24.5 28.5,24.5C 28.5,30.1667 28.5,35.8333 28.5,41.5C 31.1667,41.5 33.8333,41.5 36.5,41.5C 36.5,35.8333 36.5,30.1667 36.5,24.5C 39.8333,24.5 43.1667,24.5 46.5,24.5C 46.5,39.5 46.5,54.5 46.5,69.5C 43.1667,69.5 39.8333,69.5 36.5,69.5C 36.5,63.5 36.5,57.5 36.5,51.5C 33.8806,51.2317 31.3806,51.565 29,52.5C 28.5006,58.1569 28.3339,63.8236 28.5,69.5C 22.5,69.5 16.5,69.5 10.5,69.5C 10.5,54.5 10.5,39.5 10.5,24.5 Z"/></g>
<g><path style="opacity:0.838" fill="#000000" d="M 54.5,41.5 C 57.7766,41.2161 60.9433,41.5495 64,42.5C 64.4994,48.1569 64.6661,53.8236 64.5,59.5C 66.8333,59.5 69.1667,59.5 71.5,59.5C 71.5,53.5 71.5,47.5 71.5,41.5C 74.8333,41.5 78.1667,41.5 81.5,41.5C 81.5,50.8333 81.5,60.1667 81.5,69.5C 72.5,69.5 63.5,69.5 54.5,69.5C 54.5,60.1667 54.5,50.8333 54.5,41.5 Z"/></g>
<g><path style="opacity:0.831" fill="#000000" d="M 97.5,41.5 C 106.833,41.5 116.167,41.5 125.5,41.5C 125.5,50.8333 125.5,60.1667 125.5,69.5C 122.167,69.5 118.833,69.5 115.5,69.5C 115.5,63.5 115.5,57.5 115.5,51.5C 112.881,51.2317 110.381,51.565 108,52.5C 107.501,58.1569 107.334,63.8236 107.5,69.5C 104.167,69.5 100.833,69.5 97.5,69.5C 97.5,60.1667 97.5,50.8333 97.5,41.5 Z"/></g>
<g><path style="opacity:0.8" fill="#000000" d="M 141.5,41.5 C 150.833,41.5 160.167,41.5 169.5,41.5C 169.665,44.8499 169.498,48.1832 169,51.5C 166.281,52.4438 163.448,52.7771 160.5,52.5C 160.5,58.1667 160.5,63.8333 160.5,69.5C 157.167,69.5 153.833,69.5 150.5,69.5C 150.5,63.8333 150.5,58.1667 150.5,52.5C 147.552,52.7771 144.719,52.4438 142,51.5C 141.502,48.1832 141.335,44.8499 141.5,41.5 Z"/></g>
<g><path style="opacity:0.908" fill="#000000" d="M 186.5,41.5 C 192.5,41.5 198.5,41.5 204.5,41.5C 204.5,44.5 204.5,47.5 204.5,50.5C 207.5,50.5 210.5,50.5 213.5,50.5C 213.5,56.8333 213.5,63.1667 213.5,69.5C 204.5,69.5 195.5,69.5 186.5,69.5C 186.5,60.1667 186.5,50.8333 186.5,41.5 Z"/></g>
<g><path style="opacity:0.873" fill="#000000" d="M 230.5,41.5 C 239.5,41.5 248.5,41.5 257.5,41.5C 257.5,50.8333 257.5,60.1667 257.5,69.5C 248.5,69.5 239.5,69.5 230.5,69.5C 230.5,60.1667 230.5,50.8333 230.5,41.5 Z M 240.5,51.5 C 242.833,51.5 245.167,51.5 247.5,51.5C 247.5,54.1667 247.5,56.8333 247.5,59.5C 245.167,59.5 242.833,59.5 240.5,59.5C 240.5,56.8333 240.5,54.1667 240.5,51.5 Z"/></g>
<g><path style="opacity:0.745" fill="#000000" d="M 274.5,41.5 C 277.518,41.3354 280.518,41.502 283.5,42C 284.444,44.7191 284.777,47.5525 284.5,50.5C 286.833,50.5 289.167,50.5 291.5,50.5C 291.5,47.5 291.5,44.5 291.5,41.5C 294.833,41.5 298.167,41.5 301.5,41.5C 301.5,44.8333 301.5,48.1667 301.5,51.5C 298.813,51.3359 296.146,51.5026 293.5,52C 292.565,54.3806 292.232,56.8806 292.5,59.5C 295.5,59.5 298.5,59.5 301.5,59.5C 301.5,62.8333 301.5,66.1667 301.5,69.5C 298.167,69.5 294.833,69.5 291.5,69.5C 291.5,66.5 291.5,63.5 291.5,60.5C 289.167,60.5 286.833,60.5 284.5,60.5C 284.777,63.4475 284.444,66.2809 283.5,69C 280.518,69.498 277.518,69.6646 274.5,69.5C 274.5,66.1667 274.5,62.8333 274.5,59.5C 277.167,59.5 279.833,59.5 282.5,59.5C 282.5,56.8333 282.5,54.1667 282.5,51.5C 279.833,51.5 277.167,51.5 274.5,51.5C 274.5,48.1667 274.5,44.8333 274.5,41.5 Z"/></g>
</svg>
